<?xml version="1.0" encoding="UTF-8"?>
<svg width="766px" height="108px" viewBox="0 0 766 108" version="1.1" xmlns="http://www.w3.org/2000/svg" xmlns:xlink="http://www.w3.org/1999/xlink">
    <!-- Generator: Sketch 60.1 (88133) - https://sketch.com -->
    <title>Group</title>
    <desc>Created with Sketch.</desc>
    <g id="App" stroke="none" stroke-width="1" fill="none" fill-rule="evenodd">
        <g id="Group" transform="translate(0.000000, -1.000000)" fill-rule="nonzero">
            <g transform="translate(0.000000, 0.435484)" fill="#FF1D1D">
                <path d="M101.322435,5.99677098 C98.3438234,2.89926531 94.4964502,1.32160242 89.8878763,1.32160242 C85.4365069,1.32160242 79.2062445,3.13054573 74.7714229,11.6961814 L53.3585157,52.1124354 L31.8545953,11.7292215 C30.1915372,8.51607559 28.0568657,5.98025094 25.508498,4.18782766 C22.8029259,2.28802419 19.758123,1.32986243 16.4485547,1.32986243 C11.8565286,1.32986243 7.99260756,2.89100529 4.97262644,5.97199093 C1.96919317,9.02819652 0.446791727,12.9847438 0.446791727,17.7177324 L0.446791727,92.0000484 C0.446791727,96.5926168 1.89472788,100.334404 4.7575045,103.118029 C7.59545936,105.885134 11.2028889,107.289336 15.4887799,107.289336 C19.8822318,107.289336 23.5475788,105.852094 26.3855336,103.018909 C29.2234885,100.185723 30.6631507,96.4769766 30.6631507,92.0000484 L30.6631507,68.5250854 L38.3909928,82.4514709 C40.2608989,85.9702373 42.2797356,88.4647619 44.5633378,90.0837249 C46.9958705,91.810068 49.8669211,92.6856296 53.0937502,92.6856296 C56.3205793,92.6856296 59.1916299,91.810068 61.6241626,90.0837249 C63.9077648,88.4647619 65.9183275,85.9702373 67.7799597,82.484511 L75.6650063,67.9881844 L75.6650063,92.0000484 C75.6650063,96.5926168 77.1129425,100.334404 79.9757191,103.118029 C82.813674,105.885134 86.4211035,107.289336 90.7069945,107.289336 C95.1004464,107.289336 98.7409716,105.876874 101.537557,103.084989 C104.334142,100.293104 105.748983,96.5678367 105.748983,91.9917884 L105.748983,17.7094724 C105.748983,12.9930038 104.259677,9.05297657 101.322435,5.99677098 L101.322435,5.99677098 Z" id="Path"></path>
                <path d="M138.207574,1.32160242 C133.268043,1.32160242 129.23037,2.84970522 126.210389,5.86461073 C123.190408,8.87951625 121.659732,12.8608435 121.386693,17.7094724 L121.386693,90.7610461 C121.659732,95.6922751 123.190408,99.7231625 126.210389,102.738068 C129.23037,105.752974 133.268043,107.281076 138.207574,107.281076 C143.22157,107.281076 147.317161,105.761234 150.378512,102.762848 C153.464684,99.7479426 155.028455,95.7005351 155.028455,90.7527861 L155.028455,17.7012124 C155.028455,12.8443235 153.464684,8.85473621 150.378512,5.83157067 C147.308887,2.8414452 143.22157,1.32160242 138.207574,1.32160242 Z" id="Path"></path>
                <path d="M220.864044,28.7696327 C223.470329,28.7696327 226.02697,29.1248133 228.476051,29.8351746 C230.949953,30.5537959 233.663799,31.7927982 236.468658,33.4695813 C238.173086,34.5351232 239.670666,35.3033046 241.035863,35.8154255 C242.59136,36.3936266 244.312335,36.6909872 246.165694,36.6909872 C249.68211,36.6909872 252.793104,35.1546243 255.159446,32.247099 C257.360309,29.5460741 258.477288,26.2668481 258.477288,22.4920212 C258.477288,19.8157763 257.972579,17.511232 256.96316,15.6444686 C255.978564,13.8107453 254.431341,12.1422222 252.346313,10.6719395 C242.930591,4.11348753 231.884906,0.784701436 219.507121,0.784701436 C209.189541,0.784701436 199.988941,2.98186546 192.153538,7.30185336 C184.235396,11.6796614 178.021681,18.031613 173.694421,26.1677279 C169.433352,34.1964626 167.265584,43.6211398 167.265584,54.1691791 C167.265584,64.8163386 169.425078,74.2823159 173.694421,82.3110506 C178.021681,90.4554255 184.227122,96.8073772 192.153538,101.176925 C199.980667,105.505173 209.181267,107.694077 219.507121,107.694077 C231.884906,107.694077 242.938864,104.365291 252.371134,97.798579 C254.456162,96.3282963 256.011659,94.6184732 256.996256,92.7186697 C257.980853,90.8188662 258.477288,88.5556221 258.477288,85.9867574 C258.477288,82.2119305 257.360309,78.9327045 255.159446,76.2316795 C252.78483,73.3241542 249.673836,71.7877914 246.165694,71.7877914 C244.378527,71.7877914 242.756838,72.0686319 241.358546,72.6303129 C240.332579,73.0433137 238.851548,73.753675 236.849259,74.7944369 C233.026707,76.5290401 229.874343,77.8176024 227.48318,78.6270839 C225.365057,79.3457052 223.147646,79.7091459 220.872318,79.7091459 C213.996689,79.7091459 209.106802,77.8176024 205.93789,73.9188753 C202.6035,69.8219078 200.907346,63.1808556 200.907346,54.1774392 C200.907346,45.2648828 202.595226,38.6733908 205.93789,34.5764233 C209.098528,30.6611761 213.988415,28.7696327 220.864044,28.7696327 Z" id="Path"></path>
                <path d="M361.975764,5.86461073 C358.955783,2.84970522 354.967753,1.32160242 350.119235,1.32160242 C345.270718,1.32160242 341.282688,2.84970522 338.262707,5.86461073 C335.242726,8.87951625 333.71205,12.8608435 333.71205,17.7094724 L333.71205,39.4250522 L302.535916,39.4250522 L302.535916,17.7094724 C302.535916,12.8691036 301.005241,8.88777627 297.98526,5.86461073 C294.965279,2.84970522 290.968975,1.32160242 286.128731,1.32160242 C281.280214,1.32160242 277.292184,2.84970522 274.272203,5.86461073 C271.252222,8.87951625 269.721546,12.8608435 269.721546,17.7094724 L269.721546,90.7610461 C269.721546,95.6922751 271.252222,99.7231625 274.272203,102.738068 C277.292184,105.752974 281.280214,107.281076 286.128731,107.281076 C290.993797,107.281076 294.990101,105.719933 298.018356,102.638948 C301.021789,99.5827423 302.54419,95.5848949 302.54419,90.7610461 L302.54419,67.5504036 L333.720324,67.5504036 L333.720324,90.7610461 C333.720324,95.6922751 335.251,99.7231625 338.270981,102.738068 C341.290962,105.752974 345.278992,107.281076 350.127509,107.281076 C354.992575,107.281076 358.988879,105.719933 362.017134,102.638948 C365.020567,99.5827423 366.542968,95.5848949 366.542968,90.7610461 L366.542968,17.7094724 C366.534694,12.8691036 365.004019,8.88777627 361.975764,5.86461073 L361.975764,5.86461073 Z" id="Path"></path>
                <path d="M458.929569,7.30185336 C451.10244,2.97360544 441.802553,0.784701436 431.302947,0.784701436 C420.803341,0.784701436 411.511728,2.98186546 403.676325,7.30185336 C395.749909,11.6879214 389.561016,18.015093 385.283399,26.1099078 C381.063699,34.0890824 378.929028,43.5302797 378.929028,54.1691791 C378.929028,64.8080786 381.063699,74.2492759 385.283399,82.2284505 C389.561016,90.3232653 395.741635,96.6752169 403.659777,101.102585 L403.659777,101.102585 C411.49518,105.480393 420.795067,107.702337 431.302947,107.702337 C441.719813,107.702337 450.978331,105.480393 458.813734,101.102585 C466.731876,96.6834769 472.912495,90.3315253 477.190112,82.2284505 C481.409812,74.2492759 483.544483,64.8080786 483.544483,54.1691791 C483.544483,43.5385397 481.434633,34.1056024 477.264577,26.1264278 C473.02833,18.015093 466.855985,11.6796614 458.929569,7.30185336 Z M445.186586,74.0758156 L445.186586,74.0758156 C441.877018,78.2306032 437.334635,80.2460469 431.302947,80.2460469 C425.262985,80.2460469 420.720602,78.2471232 417.411034,74.1336357 C413.927713,69.8053878 412.165368,63.0899955 412.165368,54.1691791 C412.165368,45.2566228 413.927713,38.5660106 417.40276,34.2873228 C420.712328,30.2068753 425.262985,28.2244717 431.311221,28.2244717 C437.268444,28.2244717 441.794279,30.2316553 445.15349,34.3534029 C448.669907,38.6816508 450.457074,45.347483 450.457074,54.1691791 C450.4488,63.0073953 448.678181,69.7062676 445.186586,74.0758156 Z" id="Shape"></path>
                <path d="M556.992079,77.9249826 L529.638496,77.9249826 L529.638496,17.7094724 C529.638496,12.8525835 528.074725,8.86299622 524.988553,5.83983069 C521.927202,2.8414452 517.831611,1.32160242 512.817615,1.32160242 C507.878085,1.32160242 503.840411,2.84970522 500.82043,5.86461073 C497.800449,8.87951625 496.269774,12.8608435 496.269774,17.7094724 L496.269774,90.6288859 C496.269774,95.5601149 497.684614,99.4753621 500.481199,102.258987 C503.269511,105.050872 507.14998,106.463335 511.998497,106.463335 L556.992079,106.463335 C561.972979,106.463335 565.869996,105.315193 568.583842,103.051949 C571.504536,100.606984 572.993842,96.9725775 572.993842,92.2643689 C572.985568,83.1535722 567.160728,77.9249826 556.992079,77.9249826 Z" id="Path"></path>
                <path d="M646.457985,77.9249826 L619.104403,77.9249826 L619.104403,17.7094724 C619.104403,12.8525835 617.540632,8.86299622 614.454459,5.83983069 C611.393109,2.8414452 607.297518,1.32160242 602.283522,1.32160242 C597.343991,1.32160242 593.306317,2.84970522 590.286336,5.86461073 C587.266355,8.87951625 585.73568,12.8608435 585.73568,17.7094724 L585.73568,90.6288859 C585.73568,95.5601149 587.15052,99.4753621 589.947106,102.258987 C592.735417,105.050872 596.615886,106.463335 601.464403,106.463335 L646.457985,106.463335 C651.438886,106.463335 655.335902,105.315193 658.049748,103.051949 C660.970442,100.606984 662.459748,96.9725775 662.459748,92.2643689 C662.459748,83.1535722 656.626634,77.9249826 646.457985,77.9249826 Z" id="Path"></path>
            </g>
            <path d="M762.14189,28.3244893 L701.087577,100.59514 C695.237266,107.515022 684.84964,108.415102 677.877465,102.601741 L677.877465,102.601741 C670.9136,96.7883797 670.007799,86.4663603 675.85811,79.5464785 L736.912423,7.27582725 C742.762734,0.355945426 753.15036,-0.544134669 760.122535,5.26922667 L760.122535,5.26922667 C767.0864,11.082588 767.992201,21.3963498 762.14189,28.3244893 Z" id="Path" fill="#343A40"></path>
            <path d="M734,35.6454102 C731.707895,14.9539865 713.486075,-0.234663803 692.840704,1.58299435 L692.791411,1.59129416 C671.825638,3.43385174 656.314909,22.1084218 658.14695,43.2895342 L658.14695,43.2895342 C659.946129,64.1718534 677.921486,79.6841963 698.509349,78.3562269 L734,35.6454102 Z" id="Path" fill="#FF1D1D"></path>
        </g>
    </g>
</svg>