<?xml version="1.0" standalone="no"?>
<!DOCTYPE svg PUBLIC "-//W3C//DTD SVG 20010904//EN"
 "http://www.w3.org/TR/2001/REC-SVG-20010904/DTD/svg10.dtd">
<svg version="1.0" xmlns="http://www.w3.org/2000/svg"
 width="183.000000pt" height="22.000000pt" viewBox="0 0 183.000000 22.000000"
 preserveAspectRatio="xMidYMid meet">

<g transform="translate(0.000000,22.000000) scale(0.100000,-0.100000)"
fill="#000000" stroke="none">
<path d="M115 200 c-27 -10 -65 -19 -82 -19 -31 -1 -33 -3 -33 -36 0 -35 43
-115 61 -115 14 0 10 11 -16 46 -14 18 -25 43 -25 56 0 20 10 26 74 46 104 31
212 31 269 -2 23 -13 65 -26 92 -29 75 -8 105 -22 105 -50 0 -46 -44 -64 -54
-22 -14 56 -98 56 -112 0 -6 -25 -8 -25 -99 -25 -91 0 -93 0 -99 25 -14 55
-98 56 -112 1 -13 -54 43 -93 91 -62 36 24 202 23 244 -2 30 -16 32 -16 62 0
17 10 39 18 48 18 28 0 51 33 51 72 0 34 -1 35 -60 51 -33 10 -72 17 -87 17
-16 0 -46 12 -68 25 -34 21 -52 25 -120 24 -51 0 -98 -7 -130 -19z m55 -115
c26 -32 -13 -81 -47 -59 -10 6 -19 19 -21 28 -8 38 43 61 68 31z m310 0 c15
-18 10 -45 -12 -59 -35 -22 -74 27 -48 59 16 19 44 19 60 0z"/>
<path d="M124 69 c-10 -17 13 -36 27 -22 12 12 4 33 -11 33 -5 0 -12 -5 -16
-11z"/>
<path d="M434 69 c-10 -17 13 -36 27 -22 12 12 4 33 -11 33 -5 0 -12 -5 -16
-11z"/>
<path d="M670 193 c0 -5 12 -26 25 -48 15 -24 25 -55 25 -77 0 -21 5 -38 10
-38 6 0 10 16 10 36 0 23 11 55 30 85 34 55 22 68 -12 14 -13 -19 -26 -35 -29
-35 -3 0 -14 16 -25 35 -17 32 -34 46 -34 28z"/>
<path d="M1070 115 c0 -50 4 -85 10 -85 6 0 10 35 10 85 0 50 -4 85 -10 85 -6
0 -10 -35 -10 -85z"/>
<path d="M210 170 c0 -18 7 -20 70 -20 40 0 70 4 70 10 0 6 -27 10 -60 10 -33
0 -60 4 -60 10 0 6 -4 10 -10 10 -5 0 -10 -9 -10 -20z"/>
<path d="M880 110 c0 -89 17 -110 22 -28 l3 53 25 -48 c14 -26 27 -47 30 -47
3 0 16 21 30 47 l25 48 3 -53 c5 -82 22 -61 22 28 0 44 -2 80 -4 80 -3 0 -19
-25 -36 -55 -17 -30 -35 -55 -40 -55 -5 0 -23 25 -40 55 -17 30 -33 55 -36 55
-2 0 -4 -36 -4 -80z"/>
<path d="M1186 158 c-15 -13 -29 -37 -32 -54 -11 -58 54 -95 102 -60 17 14 16
15 -25 13 -53 -2 -71 17 -55 60 12 34 56 53 84 35 11 -7 21 -8 25 -2 7 11 -26
30 -54 30 -11 0 -31 -10 -45 -22z"/>
<path d="M1319 151 c-34 -35 -38 -72 -9 -101 26 -26 63 -25 94 2 37 32 44 80
17 107 -30 30 -67 27 -102 -8z m95 -13 c16 -26 -4 -71 -37 -82 -36 -13 -61 2
-65 37 -7 54 74 90 102 45z"/>
<path d="M1479 151 c-34 -35 -38 -72 -9 -101 20 -20 45 -25 74 -14 28 11 17
21 -20 20 -45 -1 -63 20 -48 61 12 34 56 53 84 35 22 -13 27 -3 8 16 -21 21
-58 13 -89 -17z"/>
<path d="M1605 158 c-28 -123 -28 -128 -16 -128 5 0 11 14 15 30 5 26 10 30
41 30 33 0 34 -1 29 -30 -4 -17 -2 -30 3 -30 6 0 13 19 16 42 4 24 9 58 13 76
4 21 3 32 -5 32 -6 0 -11 -9 -11 -19 0 -38 -11 -51 -45 -51 -32 0 -33 0 -25
35 4 19 4 35 -1 35 -5 0 -11 -10 -14 -22z"/>
<path d="M1745 168 c-5 -18 -25 -117 -25 -128 0 -6 18 -10 40 -10 22 0 40 5
40 10 0 6 -13 10 -30 10 -16 0 -30 4 -30 9 0 27 15 41 41 41 16 0 29 5 29 10
0 6 -13 10 -29 10 -24 0 -28 3 -24 20 4 15 14 20 39 20 19 0 34 5 34 10 0 15
-80 12 -85 -2z"/>
</g>
</svg>
